<?xml version="1.0" standalone="no"?>
<!DOCTYPE svg PUBLIC "-//W3C//DTD SVG 20010904//EN"
 "http://www.w3.org/TR/2001/REC-SVG-20010904/DTD/svg10.dtd">
<svg version="1.0" xmlns="http://www.w3.org/2000/svg"
 width="301.000000pt" height="167.000000pt" viewBox="0 0 301.000000 167.000000"
 preserveAspectRatio="xMidYMid meet">

<g transform="translate(0.000000,167.000000) scale(0.100000,-0.100000)"
fill="#000000" stroke="none">
<path d="M70 1090 l0 -100 1435 0 1435 0 0 100 0 100 -1435 0 -1435 0 0 -100z
m650 50 c11 -6 24 -20 30 -31 15 -28 -11 -69 -45 -69 -52 0 -75 65 -33 94 27
19 24 19 48 6z m165 -14 c10 -7 16 -20 12 -28 -3 -9 1 -25 9 -37 14 -19 13
-21 -1 -21 -8 0 -18 7 -21 15 -4 8 -10 15 -15 15 -5 0 -9 -7 -9 -15 0 -8 -4
-15 -10 -15 -5 0 -10 23 -10 50 0 53 10 62 45 36z m211 3 c3 -6 -3 -13 -15
-16 -16 -4 -21 -13 -21 -39 0 -19 -4 -34 -10 -34 -5 0 -10 15 -10 34 0 38 -22
50 -68 36 -24 -7 -24 -8 -4 -9 12 -1 22 -5 22 -10 0 -5 -10 -12 -22 -16 -22
-8 -22 -8 5 -12 39 -6 33 -23 -8 -23 -35 0 -35 0 -35 43 0 24 2 46 5 49 10 10
154 7 161 -3z m68 -5 c9 -8 14 -20 10 -25 -7 -11 5 -49 15 -49 4 0 16 18 26
40 10 23 22 43 26 46 5 3 20 -18 34 -46 20 -40 22 -50 10 -50 -8 0 -15 5 -15
10 0 6 -9 10 -19 10 -11 0 -23 -4 -26 -10 -10 -16 -62 -12 -69 5 -3 8 -10 15
-16 15 -5 0 -10 -7 -10 -15 0 -8 -4 -15 -10 -15 -5 0 -10 23 -10 50 0 43 3 50
19 50 11 0 27 -7 35 -16z m166 -34 c0 -27 -4 -50 -10 -50 -5 0 -10 23 -10 50
0 28 5 50 10 50 6 0 10 -22 10 -50z m108 33 c2 -8 -5 -13 -18 -13 -19 0 -22
-4 -18 -35 3 -24 0 -35 -9 -35 -8 0 -13 13 -13 35 0 24 -5 35 -15 35 -8 0 -15
7 -15 16 0 12 9 14 42 12 23 -2 43 -9 46 -15z m73 2 c0 -5 -10 -13 -23 -17
-23 -6 -23 -6 -1 -7 28 -1 41 -21 14 -21 -11 0 -23 -4 -26 -10 -4 -6 5 -10 19
-10 14 0 26 -4 26 -10 0 -5 -16 -10 -35 -10 -35 0 -35 0 -35 43 0 24 3 47 7
51 10 10 54 3 54 -9z m147 9 c33 -9 26 -24 -12 -24 -35 0 -50 -17 -36 -40 5
-9 19 -11 40 -7 23 5 30 3 28 -6 -6 -16 -66 -21 -84 -6 -21 17 -17 56 8 73 25
18 25 18 56 10z m120 -10 c24 -17 29 -53 10 -72 -16 -16 -70 -16 -86 0 -27 27
2 88 43 88 6 0 21 -7 33 -16z m110 -1 c28 26 32 21 32 -33 0 -27 -4 -50 -10
-50 -5 0 -10 12 -10 26 0 23 -2 25 -16 13 -13 -10 -17 -10 -25 2 -6 10 -9 7
-9 -13 0 -18 -5 -28 -15 -28 -11 0 -15 11 -15 43 0 53 8 62 32 40 17 -15 19
-15 36 0z m107 3 c21 -15 14 -46 -10 -46 -8 0 -15 -9 -15 -20 0 -11 -7 -20
-15 -20 -11 0 -15 11 -15 43 0 59 16 72 55 43z m55 -32 c0 -27 4 -34 20 -34
11 0 20 -4 20 -10 0 -5 -16 -10 -35 -10 -35 0 -35 0 -35 43 0 24 3 47 6 50 13
13 24 -5 24 -39z m118 29 c2 -8 -6 -14 -20 -14 l-23 -2 23 -4 c27 -5 29 -23 2
-23 -11 0 -20 -4 -20 -10 0 -5 9 -10 20 -10 11 0 20 -4 20 -10 0 -5 -16 -10
-35 -10 -35 0 -35 0 -35 43 0 24 3 47 7 51 11 11 56 2 61 -11z m56 -10 c6 -14
10 -13 30 6 28 27 36 19 36 -36 0 -32 -4 -43 -15 -43 -10 0 -15 10 -15 27 0
21 -3 24 -12 15 -8 -8 -15 -9 -25 -1 -10 9 -13 6 -13 -15 0 -14 -4 -26 -10
-26 -5 0 -10 22 -10 50 0 39 3 48 14 44 8 -3 17 -13 20 -21z m146 12 c0 -8
-10 -16 -22 -16 l-23 -2 23 -4 c27 -5 29 -23 2 -23 -11 0 -20 -4 -20 -10 0 -5
9 -10 20 -10 11 0 20 -4 20 -10 0 -5 -13 -10 -30 -10 -29 0 -30 1 -30 50 0 49
1 50 30 50 20 0 30 -5 30 -15z m65 -16 l35 -31 0 32 c0 18 4 29 10 25 15 -9
13 -95 -2 -95 -7 0 -25 12 -40 27 l-28 27 0 -27 c0 -15 -4 -27 -10 -27 -5 0
-10 23 -10 50 0 28 2 50 5 50 2 0 20 -14 40 -31z m155 16 c0 -8 -7 -15 -15
-15 -10 0 -15 -11 -15 -35 0 -26 -4 -35 -16 -35 -13 0 -15 8 -12 35 3 29 1 35
-14 35 -18 0 -24 11 -11 23 3 4 24 7 45 7 27 0 38 -4 38 -15z m75 -35 c20 -39
22 -50 11 -50 -8 0 -18 5 -21 10 -3 6 -15 10 -26 10 -10 0 -19 -4 -19 -10 0
-5 -7 -10 -15 -10 -13 0 -12 5 2 38 18 38 33 62 39 62 2 0 15 -22 29 -50z m55
0 c0 -27 -4 -50 -10 -50 -5 0 -10 23 -10 50 0 28 5 50 10 50 6 0 10 -22 10
-50z m75 36 c12 -8 16 -19 11 -31 -4 -11 0 -25 10 -36 22 -25 -1 -26 -28 -2
-17 15 -18 15 -18 0 0 -10 -7 -17 -15 -17 -11 0 -15 11 -15 43 0 59 16 72 55
43z m105 -1 c0 -8 -10 -16 -22 -16 l-23 -2 23 -4 c12 -2 22 -8 22 -13 0 -4
-10 -11 -22 -15 -22 -7 -22 -7 -3 -12 39 -9 40 -23 2 -23 l-37 0 0 50 c0 49 1
50 30 50 20 0 30 -5 30 -15z"/>
<path d="M1717 1097 c-8 -22 8 -39 34 -35 35 5 33 42 -2 46 -16 2 -29 -3 -32
-11z"/>
<path d="M663 961 c-12 -3 -32 -15 -45 -27 -23 -20 -24 -20 -53 -2 -115 69
-249 -64 -154 -153 17 -16 26 -29 21 -29 -18 0 -42 -31 -42 -54 0 -36 23 -48
107 -56 62 -6 80 -12 95 -30 24 -29 23 -43 -6 -77 -21 -25 -31 -28 -80 -27
-39 0 -61 5 -76 19 -22 20 -27 64 -8 83 16 16 4 25 -21 17 -24 -7 -36 -43 -26
-75 17 -54 146 -81 215 -45 58 30 77 105 37 150 -19 23 -34 28 -107 36 -47 5
-89 14 -93 18 -18 18 4 30 64 37 86 10 121 40 119 103 -3 69 -2 71 25 83 46
21 55 0 55 -133 0 -112 -1 -119 -20 -119 -11 0 -20 -4 -20 -9 0 -4 32 -8 70
-8 68 0 91 9 50 20 -19 5 -20 14 -20 124 0 124 -6 146 -45 156 -11 3 -30 2
-42 -2z m-137 -29 c38 -25 45 -105 13 -146 -45 -57 -115 -10 -106 72 7 65 53
101 93 74z"/>
<path d="M97 934 c-20 -11 -27 -22 -25 -36 5 -33 27 -33 39 0 10 28 32 42 71
42 26 0 48 -29 48 -64 0 -30 -5 -34 -75 -69 -53 -26 -78 -45 -85 -63 -14 -35
-13 -41 10 -64 26 -26 75 -26 118 0 32 20 32 20 52 0 25 -25 52 -25 81 0 l24
20 -30 -2 -30 -3 -5 108 c-5 99 -7 110 -29 128 -29 24 -123 25 -164 3z m133
-169 c0 -51 -2 -56 -30 -70 -17 -9 -40 -13 -50 -10 -25 8 -35 46 -21 74 10 18
73 59 94 61 4 0 7 -25 7 -55z"/>
<path d="M860 938 c-33 -10 -34 -11 -12 -19 21 -8 22 -13 22 -119 0 -105 -1
-111 -22 -120 -17 -6 -3 -9 52 -9 53 0 69 3 53 9 -27 11 -38 60 -30 139 6 61
-3 123 -18 127 -6 1 -26 -2 -45 -8z"/>
<path d="M956 929 c-14 -11 -26 -25 -26 -31 0 -7 10 -2 23 10 27 26 40 27 57
7 15 -18 50 -20 50 -2 0 40 -62 49 -104 16z"/>
<path d="M1153 929 c-50 -25 -71 -55 -79 -112 -12 -84 35 -145 119 -154 44 -4
107 20 115 45 2 8 -8 5 -30 -8 -66 -40 -129 -12 -144 64 -16 87 19 159 79 164
21 2 37 -1 37 -7 0 -15 31 -42 41 -36 21 13 8 43 -22 54 -45 16 -68 14 -116
-10z"/>
<path d="M1638 939 c-29 -11 -46 -45 -30 -61 13 -13 31 -2 42 28 20 52 102 40
114 -16 8 -42 4 -47 -62 -76 -76 -33 -102 -59 -102 -100 0 -55 58 -71 129 -34
38 19 39 19 56 0 22 -24 43 -25 73 -4 28 19 29 39 2 22 -31 -20 -40 3 -40 110
0 85 -2 95 -25 117 -20 21 -34 25 -77 24 -29 0 -65 -5 -80 -10z m130 -171 c-3
-50 -5 -54 -40 -73 l-38 -20 -22 23 c-21 21 -22 24 -8 49 17 30 74 73 97 73
11 0 13 -13 11 -52z"/>
<path d="M1915 936 c-28 -12 -29 -13 -7 -18 21 -6 22 -11 22 -117 0 -106 -1
-112 -22 -121 -17 -6 -3 -9 52 -9 67 -1 72 1 50 12 -24 12 -25 16 -26 112 0
111 -8 155 -27 155 -6 -1 -25 -7 -42 -14z"/>
<path d="M2016 929 c-14 -11 -26 -25 -26 -31 0 -7 11 -1 25 12 22 20 29 22 43
12 30 -22 43 -25 54 -14 17 17 -9 42 -42 42 -15 0 -39 -9 -54 -21z"/>
<path d="M2160 938 c-33 -10 -34 -11 -12 -19 21 -8 22 -13 22 -119 0 -105 -1
-111 -22 -120 -17 -6 0 -9 57 -8 48 0 70 3 55 7 -24 7 -25 10 -28 102 -2 84 0
99 18 122 24 30 42 34 60 12 15 -18 50 -20 50 -2 0 45 -69 50 -111 8 l-29 -29
0 29 c0 31 -5 33 -60 17z"/>
<path d="M2432 920 c-62 -38 -87 -135 -50 -203 16 -31 70 -57 118 -57 48 0
116 33 105 50 -4 6 -17 2 -32 -10 -57 -45 -141 -9 -145 62 -4 81 5 120 34 148
31 29 72 26 87 -6 11 -25 41 -30 48 -8 15 44 -105 61 -165 24z"/>
<path d="M2703 920 c-41 -25 -63 -68 -63 -124 0 -103 121 -168 219 -118 52 26
75 63 75 121 0 56 -20 93 -67 121 -43 26 -121 26 -164 0z m121 -1 c39 -18 62
-94 47 -160 -19 -83 -82 -113 -138 -65 -26 23 -28 29 -28 104 0 71 3 83 24
106 26 28 56 33 95 15z"/>
<path d="M1382 788 c3 -8 29 -14 71 -16 55 -2 67 0 67 13 0 12 -14 15 -71 15
-52 0 -70 -3 -67 -12z"/>
</g>
</svg>
